<svg height="512pt" viewBox="0 0 512 512" width="512pt" xmlns="http://www.w3.org/2000/svg"><path d="m184.070312 413.414062h142.976563v69.089844h-142.976563zm0 0" fill="#5a5a5a"/><path d="m484.878906 425.992188h-458.640625c-14.492187 0-26.238281-11.746094-26.238281-26.238282v-373.28125c0-14.492187 11.746094-26.238281 26.238281-26.238281h458.640625c14.488282 0 26.238282 11.746094 26.238282 26.238281v373.28125c0 14.492188-11.746094 26.238282-26.238282 26.238282zm0 0" fill="#80e0dc"/><path d="m511.121094 26.476562v373.277344c0 14.492188-11.746094 26.238282-26.238282 26.238282h-32.054687c14.492187 0 26.242187-11.746094 26.242187-26.238282v-373.277344c0-14.492187-11.75-26.242187-26.242187-26.242187h32.054687c14.492188 0 26.238282 11.75 26.238282 26.242187zm0 0" fill="#00a8b0"/><path d="m511.117188 362.777344h-511.117188v36.976562c0 14.492188 11.746094 26.238282 26.238281 26.238282h458.640625c14.488282 0 26.238282-11.746094 26.238282-26.238282zm0 0" fill="#838383"/><path d="m511.121094 362.773438v36.980468c0 14.492188-11.746094 26.238282-26.238282 26.238282h-32.054687c14.492187 0 26.242187-11.746094 26.242187-26.238282v-36.980468zm0 0" fill="#5a5a5a"/><path d="m511.703125 89.746094h-511.132813v-63.277344c0-14.488281 11.746094-26.234375 26.234376-26.234375h458.660156c14.492187 0 26.238281 11.746094 26.238281 26.234375zm0 0" fill="#acacac"/><path d="m512 26.230469v63.28125h-32.636719v-63.28125c0-14.484375-11.75-26.230469-26.242187-26.230469h32.640625c14.492187 0 26.238281 11.746094 26.238281 26.230469zm0 0" fill="#9c9c9c"/><path d="m64.105469 44.769531c0 8.242188-6.683594 14.925781-14.925781 14.925781-8.242188 0-14.925782-6.683593-14.925782-14.925781 0-8.242187 6.683594-14.925781 14.925782-14.925781 8.242187 0 14.925781 6.683594 14.925781 14.925781zm0 0" fill="#ff5770"/><path d="m121.746094 44.769531c0 8.242188-6.679688 14.925781-14.925782 14.925781-8.242187 0-14.921874-6.683593-14.921874-14.925781 0-8.242187 6.679687-14.925781 14.921874-14.925781 8.246094 0 14.925782 6.683594 14.925782 14.925781zm0 0" fill="#ffd86e"/><path d="m179.386719 44.769531c0 8.242188-6.679688 14.925781-14.921875 14.925781-8.246094 0-14.925782-6.683593-14.925782-14.925781 0-8.242187 6.679688-14.925781 14.925782-14.925781 8.242187 0 14.921875 6.683594 14.921875 14.925781zm0 0" fill="#00d3b4"/><path d="m64.101562 44.773438c0 8.242187-6.675781 14.917968-14.914062 14.917968-3.992188 0-7.625-1.566406-10.296875-4.125 8.074219-.175781 14.574219-6.78125 14.574219-14.90625 0-4.257812-1.78125-8.085937-4.628906-10.800781.113281-.011719.238281-.011719.351562-.011719 8.238281.003906 14.914062 6.679688 14.914062 14.925782zm0 0" fill="#ff435f"/><path d="m121.746094 44.773438c0 8.242187-6.675782 14.917968-14.925782 14.917968-3.992187 0-7.613281-1.566406-10.296874-4.125 8.085937-.175781 14.585937-6.78125 14.585937-14.90625 0-4.257812-1.78125-8.085937-4.628906-10.800781.113281-.011719.226562-.011719.339843-.011719 8.25.003906 14.925782 6.679688 14.925782 14.925782zm0 0" fill="#ffb509"/><path d="m179.390625 44.773438c0 8.242187-6.6875 14.917968-14.925781 14.917968-3.992188 0-7.613282-1.566406-10.296875-4.125 8.085937-.175781 14.574219-6.78125 14.574219-14.90625 0-4.257812-1.777344-8.085937-4.628907-10.800781.113281-.011719.238281-.011719.351563-.011719 8.238281.003906 14.925781 6.679688 14.925781 14.925782zm0 0" fill="#00b7a0"/><path d="m373.378906 511.367188h-235.640625c-2.839843 0-5.140625-2.304688-5.140625-5.144532v-16.664062c0-11.304688 9.160156-20.464844 20.460938-20.464844h205c11.300781 0 20.460937 9.160156 20.460937 20.464844v16.664062c.003907 2.839844-2.300781 5.144532-5.140625 5.144532zm0 0" fill="#838383"/><path d="m378.519531 489.554688v16.671874c0 2.839844-2.300781 5.144532-5.140625 5.144532h-18.15625v-21.816406c0-11.296876-9.164062-20.460938-20.460937-20.460938h23.300781c11.296875 0 20.457031 9.160156 20.457031 20.460938zm0 0" fill="#5a5a5a"/><path d="m61.535156 144.460938h-21.953125c-4.140625 0-7.5-3.359376-7.5-7.5 0-4.144532 3.359375-7.5 7.5-7.5h21.953125c4.140625 0 7.5 3.355468 7.5 7.5 0 4.140624-3.355468 7.5-7.5 7.5zm0 0" fill="#5a5a5a"/><path d="m220.042969 144.460938h-133.925781c-4.140626 0-7.5-3.359376-7.5-7.5 0-4.144532 3.359374-7.5 7.5-7.5h133.925781c4.144531 0 7.5 3.355468 7.5 7.5 0 4.140624-3.355469 7.5-7.5 7.5zm0 0" fill="#5a5a5a"/><path d="m199.699219 183.5625h-48.976563c-4.140625 0-7.5-3.355469-7.5-7.5 0-4.140625 3.359375-7.5 7.5-7.5h48.976563c4.144531 0 7.5 3.359375 7.5 7.5 0 4.144531-3.355469 7.5-7.5 7.5zm0 0" fill="#5a5a5a"/><path d="m125.109375 183.5625h-15.269531c-4.140625 0-7.5-3.355469-7.5-7.5 0-4.140625 3.359375-7.5 7.5-7.5h15.269531c4.140625 0 7.5 3.359375 7.5 7.5 0 4.144531-3.359375 7.5-7.5 7.5zm0 0" fill="#5a5a5a"/><path d="m85.269531 183.5625h-45.6875c-4.140625 0-7.5-3.355469-7.5-7.5 0-4.140625 3.359375-7.5 7.5-7.5h45.6875c4.140625 0 7.5 3.359375 7.5 7.5 0 4.144531-3.359375 7.5-7.5 7.5zm0 0" fill="#5a5a5a"/><path d="m494.703125 511.839844h-122.726563c-9.066406 0-16.414062-7.351563-16.414062-16.417969v-257.183594c0-9.0625 7.347656-16.414062 16.414062-16.414062h122.726563c9.066406 0 16.414063 7.351562 16.414063 16.414062v257.183594c0 9.066406-7.347657 16.417969-16.414063 16.417969zm0 0" fill="#ffd86e"/><path d="m511.121094 238.238281v257.1875c0 9.0625-7.355469 16.40625-16.417969 16.40625h-23.996094c9.0625 0 16.414063-7.34375 16.414063-16.40625v-257.1875c0-9.0625-7.351563-16.417969-16.414063-16.417969h23.996094c9.0625 0 16.417969 7.355469 16.417969 16.417969zm0 0" fill="#ffb509"/><path d="m494.703125 511.839844h-122.726563c-9.066406 0-16.414062-7.351563-16.414062-16.417969v-24.410156h155.554688v24.410156c0 9.066406-7.347657 16.417969-16.414063 16.417969zm0 0" fill="#c9f0ff"/><path d="m511.117188 262.648438h-155.554688v-24.410157c0-9.0625 7.347656-16.414062 16.414062-16.414062h122.726563c9.066406 0 16.414063 7.351562 16.414063 16.414062zm0 0" fill="#c9f0ff"/><path d="m511.121094 471.015625v24.410156c0 9.0625-7.355469 16.40625-16.417969 16.40625h-24.191406c9.0625 0 16.417969-7.34375 16.417969-16.40625v-24.410156zm0 0" fill="#9ae7fd"/><path d="m511.121094 238.238281v24.410157h-24.191406v-24.410157c0-9.0625-7.355469-16.417969-16.417969-16.417969h24.191406c9.0625 0 16.417969 7.355469 16.417969 16.417969zm0 0" fill="#9ae7fd"/><path d="m446.214844 499.585938h-25.75c-4.144532 0-7.5-3.359376-7.5-7.5 0-4.144532 3.355468-7.5 7.5-7.5h25.75c4.144531 0 7.5 3.355468 7.5 7.5 0 4.140624-3.355469 7.5-7.5 7.5zm0 0" fill="#838383"/><path d="m418.222656 248.492188h-8.878906c-4.144531 0-7.5-3.355469-7.5-7.5 0-4.140626 3.355469-7.5 7.5-7.5h8.878906c4.140625 0 7.5 3.359374 7.5 7.5 0 4.144531-3.359375 7.5-7.5 7.5zm0 0" fill="#838383"/><path d="m457.335938 248.492188h-17.449219c-4.140625 0-7.5-3.355469-7.5-7.5 0-4.140626 3.359375-7.5 7.5-7.5h17.449219c4.140624 0 7.5 3.359374 7.5 7.5 0 4.144531-3.355469 7.5-7.5 7.5zm0 0" fill="#838383"/><g fill="#ff5770"><path d="m407.28125 308.152344h-28.441406c-4.140625 0-7.5-3.355469-7.5-7.5 0-4.140625 3.359375-7.5 7.5-7.5h28.441406c4.140625 0 7.5 3.359375 7.5 7.5 0 4.144531-3.359375 7.5-7.5 7.5zm0 0"/><path d="m441.515625 308.152344h-12.132813c-4.140624 0-7.5-3.355469-7.5-7.5 0-4.140625 3.359376-7.5 7.5-7.5h12.132813c4.140625 0 7.5 3.359375 7.5 7.5 0 4.144531-3.359375 7.5-7.5 7.5zm0 0"/><path d="m487.839844 308.152344h-26.042969c-4.140625 0-7.5-3.355469-7.5-7.5 0-4.140625 3.359375-7.5 7.5-7.5h26.042969c4.140625 0 7.5 3.359375 7.5 7.5 0 4.144531-3.359375 7.5-7.5 7.5zm0 0"/><path d="m391.5 342.847656h-12.660156c-4.140625 0-7.5-3.359375-7.5-7.5 0-4.144531 3.359375-7.5 7.5-7.5h12.660156c4.140625 0 7.5 3.355469 7.5 7.5 0 4.140625-3.359375 7.5-7.5 7.5zm0 0"/><path d="m449.007812 342.847656h-36.222656c-4.140625 0-7.5-3.359375-7.5-7.5 0-4.144531 3.359375-7.5 7.5-7.5h36.222656c4.140626 0 7.5 3.355469 7.5 7.5 0 4.140625-3.359374 7.5-7.5 7.5zm0 0"/><path d="m487.839844 342.847656h-14.308594c-4.140625 0-7.5-3.359375-7.5-7.5 0-4.144531 3.359375-7.5 7.5-7.5h14.308594c4.140625 0 7.5 3.355469 7.5 7.5 0 4.140625-3.359375 7.5-7.5 7.5zm0 0"/><path d="m404.15625 374.761719h-25.316406c-4.140625 0-7.5-3.355469-7.5-7.5s3.359375-7.5 7.5-7.5h25.316406c4.140625 0 7.5 3.355469 7.5 7.5s-3.359375 7.5-7.5 7.5zm0 0"/><path d="m457.335938 374.761719h-32.054688c-4.140625 0-7.5-3.355469-7.5-7.5s3.359375-7.5 7.5-7.5h32.054688c4.140624 0 7.5 3.355469 7.5 7.5s-3.355469 7.5-7.5 7.5zm0 0"/><path d="m487.839844 374.761719h-9.847656c-4.140626 0-7.5-3.355469-7.5-7.5s3.359374-7.5 7.5-7.5h9.847656c4.140625 0 7.5 3.355469 7.5 7.5s-3.359375 7.5-7.5 7.5zm0 0"/><path d="m417.566406 409.453125h-38.726562c-4.140625 0-7.5-3.355469-7.5-7.5s3.359375-7.5 7.5-7.5h38.726562c4.144532 0 7.5 3.355469 7.5 7.5s-3.355468 7.5-7.5 7.5zm0 0"/><path d="m449.949219 409.453125h-10.492188c-4.140625 0-7.5-3.355469-7.5-7.5s3.359375-7.5 7.5-7.5h10.492188c4.140625 0 7.5 3.355469 7.5 7.5s-3.359375 7.5-7.5 7.5zm0 0"/><path d="m487.839844 409.453125h-18.285156c-4.140626 0-7.5-3.355469-7.5-7.5s3.359374-7.5 7.5-7.5h18.285156c4.140625 0 7.5 3.355469 7.5 7.5s-3.359375 7.5-7.5 7.5zm0 0"/></g></svg>